<mxfile host="app.diagrams.net" modified="2024-06-20T09:01:18.375Z" agent="Mozilla/5.0 (Windows NT 10.0; Win64; x64) AppleWebKit/537.36 (KHTML, like Gecko) Chrome/126.0.0.0 Safari/537.36" version="24.5.5" etag="LH6DZ6gRfUPVjhpbCJIL" type="github">
  <diagram name="Page-1" id="KnnPKssrJ8kZY9-WXjvV">
    <mxGraphModel>
      <root>
        <mxCell id="0" />
        <mxCell id="1" parent="0" />
      </root>
    </mxGraphModel>
  </diagram>
</mxfile>
